<svg xmlns="http://www.w3.org/2000/svg" viewBox="0 0 900 700"><defs><linearGradient id="b" x1="0" y1="0" x2="1" y2="1"><stop stop-color="#d9c58d"/><stop offset="1" stop-color="#6f8b5f"/></linearGradient><filter id="s"><feDropShadow dx="0" dy="18" stdDeviation="18" flood-opacity=".25"/></filter></defs><rect width="900" height="700" fill="url(#b)"/><circle cx="720" cy="100" r="220" fill="#f9efcb" opacity=".25"/><g filter="url(#s)" fill="#315c38"><path d="M439 508C318 446 282 326 333 232c54-99 169-120 228-39 57 78 19 204-122 315z"/><path d="M475 506c128-30 213-125 197-222-17-102-117-156-198-96-79 58-86 185 1 318z"/><path d="M408 471C268 471 160 382 164 280c4-108 104-179 198-132 92 46 111 174 46 323z"/></g><g stroke="#dce8c3" stroke-width="8" stroke-linecap="round" opacity=".65"><path d="M450 564V260"/><path d="M450 355c-56-34-88-78-100-132"/><path d="M456 390c72-39 116-86 132-142"/><path d="M438 430c-76-14-134-48-178-100"/></g><path d="M340 556h220l-30 110H370z" fill="#7a4d34"/><rect x="320" y="530" width="260" height="48" rx="24" fill="#9b6a46"/></svg>